<svg width="30" height="30" viewBox="0 0 30 30" fill="none" xmlns="http://www.w3.org/2000/svg">
<path d="M24 0H6C2.68629 0 0 2.68629 0 6V24C0 27.3137 2.68629 30 6 30H24C27.3137 30 30 27.3137 30 24V6C30 2.68629 27.3137 0 24 0Z" fill="#FFBB82"/>
<path d="M17.6781 12.3102C17.6781 12.4038 17.6409 12.4936 17.5747 12.5598C17.5085 12.626 17.4187 12.6632 17.3251 12.6632H14.2331C14.1394 12.6632 14.0495 12.6259 13.9832 12.5596C13.9169 12.4933 13.8796 12.4034 13.8796 12.3097C13.8796 12.2159 13.9169 12.126 13.9832 12.0597C14.0495 11.9934 14.1394 11.9562 14.2331 11.9562H17.3251C17.3716 11.9562 17.4176 11.9653 17.4604 11.9831C17.5033 12.0009 17.5423 12.027 17.5751 12.0599C17.6079 12.0928 17.6339 12.1318 17.6515 12.1748C17.6692 12.2177 17.6783 12.2637 17.6781 12.3102ZM16.5901 14.1462C16.6839 14.1462 16.7738 14.1089 16.8401 14.0426C16.9064 13.9763 16.9436 13.8864 16.9436 13.7927C16.9436 13.6989 16.9064 13.609 16.8401 13.5427C16.7738 13.4764 16.6839 13.4392 16.5901 13.4392H14.9681C14.8744 13.4392 14.7845 13.4764 14.7182 13.5427C14.6519 13.609 14.6146 13.6989 14.6146 13.7927C14.6146 13.8864 14.6519 13.9763 14.7182 14.0426C14.7845 14.1089 14.8744 14.1462 14.9681 14.1462H16.5901ZM17.6781 15.7242C17.6781 15.6306 17.6409 15.5408 17.5747 15.4746C17.5085 15.4084 17.4187 15.3712 17.3251 15.3712H14.2331C14.1394 15.3712 14.0495 15.4084 13.9832 15.4747C13.9169 15.541 13.8796 15.6309 13.8796 15.7247C13.8796 15.8184 13.9169 15.9083 13.9832 15.9746C14.0495 16.0409 14.1394 16.0782 14.2331 16.0782H17.3251C17.3716 16.0782 17.4176 16.069 17.4604 16.0512C17.5033 16.0334 17.5423 16.0073 17.5751 15.9744C17.6079 15.9415 17.6339 15.9025 17.6515 15.8596C17.6692 15.8166 17.6783 15.7706 17.6781 15.7242ZM14.9671 16.8542C14.8734 16.8542 14.7835 16.8914 14.7172 16.9577C14.6509 17.024 14.6136 17.1139 14.6136 17.2077C14.6136 17.3014 14.6509 17.3913 14.7172 17.4576C14.7835 17.5239 14.8734 17.5612 14.9671 17.5612H16.5901C16.6839 17.5612 16.7738 17.5239 16.8401 17.4576C16.9064 17.3913 16.9436 17.3014 16.9436 17.2077C16.9436 17.1139 16.9064 17.024 16.8401 16.9577C16.7738 16.8914 16.6839 16.8542 16.5901 16.8542H14.9671ZM20.5471 9.63717V11.8232C20.5471 11.9169 20.5844 12.0068 20.6507 12.0731C20.717 12.1394 20.8069 12.1767 20.9006 12.1767C20.9944 12.1767 21.0843 12.1394 21.1506 12.0731C21.2169 12.0068 21.2541 11.9169 21.2541 11.8232V9.63717C21.2536 9.09124 21.0367 8.56778 20.6509 8.18147C20.2652 7.79516 19.7421 7.57749 19.1961 7.57617H9.23213C8.76047 7.5767 8.30828 7.7643 7.97477 8.09781C7.64125 8.43133 7.45365 8.88351 7.45312 9.35517V12.4982C7.45313 12.5918 7.49032 12.6816 7.55652 12.7478C7.62272 12.814 7.7125 12.8512 7.80612 12.8512H9.12012C9.21388 12.8512 9.30379 12.8139 9.37009 12.7476C9.43638 12.6813 9.47363 12.5914 9.47363 12.4977C9.47363 12.4039 9.43638 12.314 9.37009 12.2477C9.30379 12.1814 9.21388 12.1442 9.12012 12.1442H8.16012V9.35517C8.16012 9.07073 8.27312 8.79793 8.47425 8.5968C8.67539 8.39567 8.94818 8.28267 9.23263 8.28267C9.51707 8.28267 9.78986 8.39567 9.991 8.5968C10.1921 8.79793 10.3051 9.07073 10.3051 9.35517V19.8762C10.3057 20.4226 10.523 20.9465 10.9094 21.3329C11.2958 21.7193 11.8197 21.9366 12.3661 21.9372H18.9481C19.0419 21.9372 19.1318 21.8999 19.1981 21.8336C19.2644 21.7673 19.3016 21.6774 19.3016 21.5837C19.3016 21.4899 19.2644 21.4 19.1981 21.3337C19.1318 21.2674 19.0419 21.2302 18.9481 21.2302H12.3651C12.0062 21.2296 11.6621 21.0868 11.4083 20.833C11.1545 20.5792 11.0117 20.2351 11.0111 19.8762V9.35517C11.0116 8.96809 10.8851 8.59153 10.6511 8.28317H19.1961C19.5545 8.28449 19.8979 8.42767 20.151 8.68139C20.4042 8.93511 20.5466 9.27875 20.5471 9.63717ZM21.5471 13.4662H20.8961C20.8024 13.4662 20.7125 13.5034 20.6462 13.5697C20.5799 13.636 20.5426 13.7259 20.5426 13.8197C20.5426 13.9134 20.5799 14.0033 20.6462 14.0696C20.7125 14.1359 20.8024 14.1732 20.8961 14.1732H21.5431C21.6208 14.1734 21.6951 14.2044 21.75 14.2593C21.8049 14.3142 21.8359 14.3885 21.8361 14.4662V18.5242C21.8361 18.6179 21.8734 18.7078 21.9397 18.7741C22.006 18.8404 22.0959 18.8777 22.1896 18.8777C22.2834 18.8777 22.3733 18.8404 22.4396 18.7741C22.5059 18.7078 22.5431 18.6179 22.5431 18.5242V14.4652C22.5431 14.2008 22.4385 13.9472 22.252 13.7598C22.0655 13.5724 21.8125 13.4665 21.5481 13.4652L21.5471 13.4662ZM20.8961 22.7072C20.8025 22.7072 20.7127 22.7444 20.6465 22.8106C20.5803 22.8768 20.5431 22.9666 20.5431 23.0602V23.1232C20.5431 23.2169 20.5804 23.3068 20.6467 23.3731C20.713 23.4394 20.8029 23.4767 20.8966 23.4767C20.9904 23.4767 21.0803 23.4394 21.1466 23.3731C21.2129 23.3068 21.2501 23.2169 21.2501 23.1232V23.0602C21.2501 23.0137 21.241 22.9677 21.2232 22.9249C21.2054 22.882 21.1793 22.843 21.1464 22.8102C21.1135 22.7774 21.0745 22.7514 21.0315 22.7338C20.9886 22.7161 20.9426 22.707 20.8961 22.7072ZM20.8961 14.7562C20.8025 14.7562 20.7127 14.7934 20.6465 14.8596C20.5803 14.9258 20.5431 15.0156 20.5431 15.1092V21.8662C20.5431 21.9599 20.5804 22.0498 20.6467 22.1161C20.713 22.1824 20.8029 22.2197 20.8966 22.2197C20.9904 22.2197 21.0803 22.1824 21.1466 22.1161C21.2129 22.0498 21.2501 21.9599 21.2501 21.8662V15.1092C21.2503 15.0626 21.2412 15.0166 21.2234 14.9735C21.2057 14.9305 21.1796 14.8915 21.1467 14.8586C21.1138 14.8257 21.0748 14.7996 21.0318 14.7818C20.9887 14.7641 20.9427 14.755 20.8961 14.7552V14.7562Z" fill="#E47634"/>
</svg>
