<svg width="62" height="63" viewBox="0 0 62 63" fill="none" xmlns="http://www.w3.org/2000/svg">
<path d="M9.73398 62.9756H52.265C53.5434 62.9758 54.8094 62.7242 55.9906 62.2351C57.1717 61.7459 58.2449 61.0288 59.1489 60.1248C60.0528 59.2207 60.7699 58.1475 61.2589 56.9662C61.7479 55.785 61.9994 54.519 61.999 53.2406V10.7106C61.9994 9.43214 61.7479 8.16615 61.2589 6.98493C60.7699 5.80371 60.0528 4.73042 59.1489 3.82637C58.2449 2.92233 57.1717 2.20525 55.9906 1.7161C54.8094 1.22695 53.5434 0.975323 52.265 0.975586H9.73398C8.45553 0.975323 7.18956 1.22695 6.00839 1.7161C4.82723 2.20525 3.75402 2.92233 2.85007 3.82637C1.94612 4.73042 1.22914 5.80371 0.740113 6.98493C0.251085 8.16615 -0.00039366 9.43214 4.62539e-07 10.7106V53.2456C0.000131741 54.5236 0.252028 55.7892 0.741303 56.9699C1.23058 58.1506 1.94762 59.2233 2.85153 60.1269C3.75544 61.0304 4.82853 61.747 6.00943 62.2358C7.19033 62.7246 8.45592 62.976 9.73398 62.9756Z" fill="#7DBB9A"/>
<path d="M26.6234 16.3818H18.3064C17.4148 16.3829 16.56 16.7375 15.9296 17.368C15.2991 17.9985 14.9444 18.8532 14.9434 19.7448V28.1318C14.9444 29.0234 15.2991 29.8782 15.9296 30.5087C16.56 31.1391 17.4148 31.4938 18.3064 31.4948H26.6234C27.5149 31.4938 28.3697 31.1391 29.0002 30.5087C29.6306 29.8782 29.9853 29.0234 29.9864 28.1318V19.7418C29.9845 18.8508 29.6295 17.9968 28.9991 17.3669C28.3688 16.7371 27.5144 16.3829 26.6234 16.3818Z" fill="#156A3E"/>
<path d="M28.8315 19.7309V28.1209C28.8312 28.7109 28.5967 29.2767 28.1795 29.6939C27.7623 30.1111 27.1965 30.3456 26.6064 30.3459H18.2895C17.6995 30.3456 17.1336 30.1111 16.7164 29.6939C16.2992 29.2767 16.0647 28.7109 16.0645 28.1209V19.7309C16.0647 19.1408 16.2992 18.575 16.7164 18.1578C17.1336 17.7406 17.6995 17.5061 18.2895 17.5059H26.6064C27.1965 17.5061 27.7623 17.7406 28.1795 18.1578C28.5967 18.575 28.8312 19.1408 28.8315 19.7309Z" fill="#A6D1BB"/>
<path d="M42.9642 16.3818H34.6442C33.7526 16.3829 32.8979 16.7375 32.2674 17.368C31.6369 17.9985 31.2823 18.8532 31.2813 19.7448V28.1318C31.2812 29.0241 31.6354 29.8799 32.266 30.5113C32.8966 31.1426 33.7519 31.4978 34.6442 31.4988H42.9602C43.8518 31.4978 44.7066 31.1431 45.337 30.5127C45.9675 29.8822 46.3222 29.0274 46.3232 28.1358V19.7458C46.3235 18.8544 45.9698 17.9994 45.34 17.3686C44.7101 16.7378 43.8556 16.3829 42.9642 16.3818Z" fill="#156A3E"/>
<path d="M45.2035 19.7309V28.1209C45.2032 28.7109 44.9687 29.2767 44.5515 29.6939C44.1343 30.1111 43.5685 30.3456 42.9785 30.3459H34.6625C34.0725 30.3456 33.5067 30.1111 33.0895 29.6939C32.6723 29.2767 32.4378 28.7109 32.4375 28.1209V19.7309C32.4378 19.1408 32.6723 18.575 33.0895 18.1578C33.5067 17.7406 34.0725 17.5061 34.6625 17.5059H42.9785C43.5685 17.5061 44.1343 17.7406 44.5515 18.1578C44.9687 18.575 45.2032 19.1408 45.2035 19.7309Z" fill="#A6D1BB"/>
<path d="M26.6234 32.79H18.3064C17.4148 32.7911 16.56 33.1458 15.9296 33.7762C15.2991 34.4067 14.9444 35.2614 14.9434 36.153V44.54C14.9444 45.4316 15.2991 46.2864 15.9296 46.9169C16.56 47.5473 17.4148 47.902 18.3064 47.903H26.6234C27.5149 47.902 28.3697 47.5473 29.0002 46.9169C29.6306 46.2864 29.9853 45.4316 29.9864 44.54V36.155C29.9851 35.2633 29.6304 34.4085 29.0001 33.7778C28.3697 33.1471 27.5151 32.7919 26.6234 32.79Z" fill="#156A3E"/>
<path d="M28.8315 36.1742V44.5592C28.8312 45.1492 28.5967 45.715 28.1795 46.1322C27.7623 46.5495 27.1965 46.784 26.6064 46.7842H18.2895C17.6995 46.784 17.1336 46.5495 16.7164 46.1322C16.2992 45.715 16.0647 45.1492 16.0645 44.5592V36.1742C16.0647 35.5842 16.2992 35.0184 16.7164 34.6012C17.1336 34.184 17.6995 33.9495 18.2895 33.9492H26.6064C26.8987 33.949 27.1882 34.0063 27.4583 34.1181C27.7283 34.2298 27.9737 34.3937 28.1804 34.6003C28.387 34.807 28.5509 35.0524 28.6627 35.3224C28.7744 35.5925 28.8317 35.882 28.8315 36.1742Z" fill="#A6D1BB"/>
<path d="M42.9642 32.79H34.6442C33.7526 32.7911 32.8979 33.1458 32.2674 33.7762C31.6369 34.4067 31.2823 35.2614 31.2812 36.153V44.54C31.2828 45.4313 31.6377 46.2856 32.2681 46.9156C32.8985 47.5456 33.753 47.9 34.6442 47.901H42.9602C43.8521 47.901 44.7077 47.5471 45.3389 46.917C45.9702 46.2869 46.3256 45.432 46.3272 44.54V36.155C46.3267 35.2631 45.9722 34.4078 45.3417 33.7769C44.7112 33.146 43.8562 32.7911 42.9642 32.79Z" fill="#156A3E"/>
<path d="M45.2035 36.1742V44.5592C45.2032 45.1492 44.9687 45.715 44.5515 46.1322C44.1343 46.5495 43.5685 46.784 42.9785 46.7842H34.6625C34.0725 46.784 33.5067 46.5495 33.0895 46.1322C32.6723 45.715 32.4378 45.1492 32.4375 44.5592V36.1742C32.4378 35.5842 32.6723 35.0184 33.0895 34.6012C33.5067 34.184 34.0725 33.9495 34.6625 33.9492H42.9785C43.2708 33.9488 43.5603 34.0061 43.8304 34.1178C44.1006 34.2295 44.346 34.3933 44.5527 34.6C44.7594 34.8067 44.9232 35.0522 45.0349 35.3223C45.1466 35.5924 45.2039 35.8819 45.2035 36.1742Z" fill="#A6D1BB"/>
<path d="M25.4377 22.9479H22.8037V20.3249C22.7945 20.1587 22.722 20.0024 22.6011 19.8881C22.4802 19.7737 22.3201 19.71 22.1537 19.71C21.9873 19.71 21.8272 19.7737 21.7063 19.8881C21.5854 20.0024 21.5129 20.1587 21.5037 20.3249V22.9479H18.8697C18.7813 22.943 18.6929 22.9562 18.6097 22.9866C18.5266 23.0171 18.4505 23.0641 18.3862 23.125C18.3219 23.1858 18.2707 23.2591 18.2357 23.3405C18.2007 23.4218 18.1826 23.5094 18.1826 23.5979C18.1826 23.6864 18.2007 23.774 18.2357 23.8553C18.2707 23.9366 18.3219 24.01 18.3862 24.0708C18.4505 24.1316 18.5266 24.1787 18.6097 24.2092C18.6929 24.2396 18.7813 24.2528 18.8697 24.2479H21.5037V26.9239C21.5129 27.0901 21.5854 27.2464 21.7063 27.3607C21.8272 27.4751 21.9873 27.5388 22.1537 27.5388C22.3201 27.5388 22.4802 27.4751 22.6011 27.3607C22.722 27.2464 22.7945 27.0901 22.8037 26.9239V24.2489H25.4377C25.5261 24.2538 25.6146 24.2406 25.6977 24.2102C25.7808 24.1797 25.8568 24.1326 25.9211 24.0718C25.9855 24.011 26.0367 23.9376 26.0717 23.8563C26.1067 23.775 26.1248 23.6874 26.1248 23.5989C26.1248 23.5104 26.1067 23.4228 26.0717 23.3415C26.0367 23.2601 25.9855 23.1868 25.9211 23.126C25.8568 23.0651 25.7808 23.0181 25.6977 22.9876C25.6146 22.9572 25.5261 22.944 25.4377 22.9489V22.9479Z" fill="#156A3E"/>
<path d="M35.8375 24.2444H42.4065C42.4949 24.2493 42.5833 24.2361 42.6664 24.2056C42.7496 24.1752 42.8256 24.1281 42.89 24.0673C42.9543 24.0064 43.0055 23.9331 43.0405 23.8518C43.0755 23.7705 43.0936 23.6829 43.0936 23.5944C43.0936 23.5058 43.0755 23.4182 43.0405 23.3369C43.0055 23.2556 42.9543 23.1823 42.89 23.1215C42.8256 23.0606 42.7496 23.0135 42.6664 22.9831C42.5833 22.9526 42.4949 22.9395 42.4065 22.9444H35.8375C35.7491 22.9395 35.6606 22.9526 35.5775 22.9831C35.4944 23.0135 35.4183 23.0606 35.354 23.1215C35.2897 23.1823 35.2385 23.2556 35.2035 23.3369C35.1685 23.4182 35.1504 23.5058 35.1504 23.5944C35.1504 23.6829 35.1685 23.7705 35.2035 23.8518C35.2385 23.9331 35.2897 24.0064 35.354 24.0673C35.4183 24.1281 35.4944 24.1752 35.5775 24.2056C35.6606 24.2361 35.7491 24.2493 35.8375 24.2444Z" fill="#156A3E"/>
<path d="M25.118 38.3318C25.1193 38.1597 25.0533 37.9939 24.934 37.8698C24.8744 37.8076 24.8026 37.7583 24.7231 37.7249C24.6437 37.6915 24.5582 37.6748 24.4721 37.6758C24.2972 37.6778 24.1298 37.7474 24.005 37.8698L22.142 39.7428L20.2791 37.8748C20.2194 37.8126 20.1476 37.7633 20.0681 37.7299C19.9887 37.6965 19.9032 37.6798 19.817 37.6808C19.6469 37.682 19.4835 37.7478 19.3601 37.8648C19.2984 37.9237 19.2494 37.9944 19.2161 38.0728C19.1827 38.1512 19.1657 38.2356 19.166 38.3208C19.1681 38.4972 19.2375 38.666 19.3601 38.7928L21.223 40.6658L19.3601 42.5338C19.2989 42.592 19.2501 42.6619 19.2168 42.7394C19.1835 42.817 19.1662 42.9004 19.166 42.9848C19.1661 43.0716 19.1833 43.1575 19.2166 43.2376C19.2498 43.3178 19.2986 43.3906 19.3601 43.4518C19.4207 43.5124 19.4927 43.5603 19.572 43.5927C19.6513 43.6252 19.7363 43.6415 19.822 43.6408C19.9949 43.6413 20.161 43.5733 20.284 43.4518L22.147 41.5788L24.01 43.4518C24.1346 43.568 24.2987 43.6326 24.4691 43.6326C24.6394 43.6326 24.8034 43.568 24.928 43.4518C25.0467 43.3285 25.113 43.164 25.113 42.9928C25.113 42.8217 25.0467 42.6572 24.928 42.5338L23.06 40.6608L24.923 38.7928C25.0449 38.6699 25.1147 38.5048 25.118 38.3318Z" fill="#156A3E"/>
<path d="M42.4436 40.0528H35.8746C35.7862 40.0479 35.6978 40.061 35.6146 40.0915C35.5315 40.1219 35.4554 40.169 35.3911 40.2299C35.3268 40.2907 35.2756 40.364 35.2406 40.4453C35.2056 40.5266 35.1875 40.6142 35.1875 40.7028C35.1875 40.7913 35.2056 40.8789 35.2406 40.9602C35.2756 41.0415 35.3268 41.1148 35.3911 41.1757C35.4554 41.2365 35.5315 41.2836 35.6146 41.314C35.6978 41.3445 35.7862 41.3577 35.8746 41.3528H42.4436C42.5294 41.3537 42.6144 41.3375 42.6938 41.3051C42.7733 41.2727 42.8454 41.2248 42.906 41.1642C42.9666 41.1035 43.0146 41.0314 43.0469 40.952C43.0793 40.8726 43.0955 40.7875 43.0946 40.7018C43.0941 40.5295 43.0252 40.3644 42.9032 40.2427C42.7812 40.1211 42.6159 40.0528 42.4436 40.0528Z" fill="#156A3E"/>
<path d="M38.2139 37.939C38.2139 38.1247 38.269 38.3063 38.3721 38.4607C38.4753 38.6151 38.6219 38.7355 38.7935 38.8065C38.9651 38.8776 39.1539 38.8962 39.3361 38.86C39.5182 38.8237 39.6855 38.7343 39.8168 38.603C39.9482 38.4717 40.0376 38.3043 40.0739 38.1222C40.1101 37.94 40.0915 37.7512 40.0204 37.5797C39.9493 37.4081 39.829 37.2614 39.6746 37.1582C39.5201 37.0551 39.3386 37 39.1529 37C39.0295 36.9999 38.9074 37.0241 38.7934 37.0712C38.6794 37.1184 38.5758 37.1875 38.4886 37.2747C38.4014 37.362 38.3322 37.4655 38.2851 37.5795C38.238 37.6935 38.2137 37.8157 38.2139 37.939Z" fill="#156A3E"/>
<path d="M39.1529 42.5303C38.9672 42.5303 38.7856 42.5853 38.6311 42.6885C38.4767 42.7917 38.3564 42.9384 38.2853 43.1099C38.2143 43.2815 38.1957 43.4703 38.2319 43.6525C38.2681 43.8346 38.3576 44.0019 38.4889 44.1332C38.6202 44.2646 38.7875 44.354 38.9696 44.3902C39.1518 44.4265 39.3406 44.4079 39.5122 44.3368C39.6838 44.2657 39.8305 44.1454 39.9336 43.991C40.0368 43.8365 40.0918 43.655 40.0918 43.4693C40.092 43.3459 40.0678 43.2238 40.0207 43.1098C39.9735 42.9958 39.9043 42.8922 39.8171 42.805C39.7299 42.7178 39.6264 42.6486 39.5124 42.6015C39.3984 42.5543 39.2762 42.5301 39.1529 42.5303Z" fill="#156A3E"/>
</svg>
